<svg width="64.000000" height="64.000000" viewBox="0 0 64 64" fill="none" xmlns="http://www.w3.org/2000/svg" xmlns:xlink="http://www.w3.org/1999/xlink">
	<desc>
			Created with Pixso.
	</desc>
	<defs>
		<clipPath id="clip10_56">
			<rect id="simple-line-icons:arrow-up" rx="-0.500000" width="23.000000" height="23.000000" transform="translate(20.500000 20.500000)" fill="white" fill-opacity="0"/>
		</clipPath>
	</defs>
	<circle id="Ellipse 1" cx="32.000000" cy="32.000000" r="31.500000" stroke="#FFFFFF" stroke-opacity="1.000000" stroke-width="1.000000"/>
	<rect id="simple-line-icons:arrow-up" rx="-0.500000" width="23.000000" height="23.000000" transform="translate(20.500000 20.500000)" fill="#FFFFFF" fill-opacity="0"/>
	<g clip-path="url(#clip10_56)">
		<path id="Vector" d="M20.19 26.45C20.19 26.25 20.27 26.04 20.42 25.89C20.73 25.58 21.24 25.58 21.55 25.89L32.14 36.48L42.57 26.04C42.88 25.73 43.39 25.73 43.7 26.04C44 26.35 44 26.86 43.7 27.17L32.7 38.17C32.39 38.48 31.88 38.48 31.57 38.17L20.42 27.02C20.26 26.86 20.19 26.66 20.19 26.45Z" fill="#FFFFFF" fill-opacity="1.000000" fill-rule="nonzero"/>
	</g>
</svg>
