<svg width="62.618164" height="62.000000" viewBox="0 0 62.6182 62" fill="none" xmlns="http://www.w3.org/2000/svg" xmlns:xlink="http://www.w3.org/1999/xlink">
	<desc>
			Created with Pixso.
	</desc>
	<defs>
		<clipPath id="clip14_190">
			<rect id="Frame" rx="-0.500000" width="61.618183" height="61.000000" transform="translate(0.500000 0.500000)" fill="white" fill-opacity="0"/>
		</clipPath>
	</defs>
	<rect id="Frame" rx="-0.500000" width="61.618183" height="61.000000" transform="translate(0.500000 0.500000)" fill="#FFFFFF" fill-opacity="0"/>
	<g clip-path="url(#clip14_190)">
		<path id="Vector" d="M9.78 23.25L41.09 23.25C44.33 23.25 46.96 25.85 46.96 29.06L46.96 42.62C46.96 45.83 44.33 48.43 41.09 48.43L9.78 48.43C6.54 48.43 3.91 45.83 3.91 42.62L3.91 29.06C3.91 25.85 6.54 23.25 9.78 23.25Z" fill="#FF3D00" fill-opacity="1.000000" fill-rule="evenodd"/>
		<path id="Vector" d="M58.7 44.56L46.96 38.75L46.96 32.93L58.7 27.12L58.7 44.56Z" fill="#FF3D00" fill-opacity="1.000000" fill-rule="nonzero"/>
		<path id="Vector" d="M43.05 11.62C43.05 15.9 39.54 19.37 35.22 19.37C30.89 19.37 27.39 15.9 27.39 11.62C27.39 7.34 30.89 3.87 35.22 3.87C39.54 3.87 43.05 7.34 43.05 11.62Z" fill="#FF3D00" fill-opacity="1.000000" fill-rule="evenodd"/>
		<path id="Vector" d="M21.52 13.56C21.52 16.77 18.89 19.37 15.65 19.37C12.41 19.37 9.78 16.77 9.78 13.56C9.78 10.35 12.41 7.75 15.65 7.75C18.89 7.75 21.52 10.35 21.52 13.56Z" fill="#FF3D00" fill-opacity="1.000000" fill-rule="evenodd"/>
		<path id="Vector" d="M59.21 26.3C59.07 26.21 58.91 26.16 58.74 26.15C58.58 26.15 58.41 26.18 58.26 26.25L47.94 31.37L47.94 29.06C47.93 27.26 47.21 25.54 45.93 24.26C44.64 22.99 42.9 22.28 41.09 22.28L9.78 22.28C7.96 22.28 6.22 22.99 4.94 24.26C3.65 25.54 2.93 27.26 2.93 29.06L2.93 42.62C2.93 44.42 3.65 46.14 4.94 47.41C6.22 48.68 7.96 49.4 9.78 49.4L23.07 49.4L14.96 57.44C14.78 57.62 14.68 57.86 14.68 58.12C14.69 58.37 14.79 58.61 14.97 58.79C15.15 58.97 15.4 59.07 15.65 59.08C15.91 59.08 16.16 58.98 16.34 58.8L25.43 49.8L34.53 58.8C34.71 58.98 34.96 59.08 35.21 59.08C35.47 59.07 35.72 58.97 35.9 58.79C36.08 58.61 36.18 58.37 36.18 58.12C36.19 57.86 36.09 57.62 35.91 57.44L27.8 49.4L41.09 49.4C42.9 49.4 44.64 48.68 45.93 47.41C47.21 46.14 47.93 44.42 47.94 42.62L47.94 40.31L58.26 45.42C58.41 45.5 58.58 45.53 58.74 45.53C58.91 45.52 59.07 45.47 59.21 45.38C59.36 45.29 59.47 45.17 59.55 45.03C59.64 44.89 59.68 44.72 59.68 44.56L59.68 27.12C59.68 26.96 59.64 26.79 59.55 26.65C59.47 26.5 59.36 26.38 59.21 26.3ZM45.98 42.62C45.98 43.9 45.46 45.14 44.55 46.04C43.63 46.95 42.39 47.46 41.09 47.46L9.78 47.46C8.48 47.46 7.24 46.95 6.32 46.04C5.4 45.14 4.89 43.9 4.89 42.62L4.89 29.06C4.89 27.77 5.4 26.54 6.32 25.63C7.24 24.73 8.48 24.22 9.78 24.21L41.09 24.21C42.39 24.22 43.63 24.73 44.55 25.63C45.46 26.54 45.98 27.77 45.98 29.06L45.98 42.62ZM57.72 42.99L47.94 38.15L47.94 33.53L57.72 28.69L57.72 42.99ZM35.22 20.34C36.96 20.34 38.66 19.83 40.11 18.87C41.56 17.91 42.69 16.55 43.35 14.96C44.02 13.36 44.19 11.61 43.85 9.92C43.51 8.23 42.68 6.67 41.44 5.45C40.21 4.24 38.64 3.41 36.94 3.07C35.23 2.73 33.46 2.91 31.85 3.56C30.24 4.22 28.86 5.34 27.9 6.78C26.93 8.21 26.41 9.9 26.41 11.62C26.41 13.93 27.34 16.15 28.99 17.78C30.64 19.42 32.88 20.34 35.22 20.34ZM35.22 4.84C36.57 4.84 37.9 5.24 39.02 5.98C40.15 6.73 41.03 7.79 41.55 9.02C42.06 10.26 42.2 11.63 41.93 12.94C41.67 14.26 41.02 15.47 40.06 16.42C39.1 17.36 37.88 18.01 36.55 18.27C35.23 18.53 33.85 18.4 32.6 17.89C31.35 17.37 30.28 16.5 29.52 15.39C28.77 14.27 28.37 12.96 28.37 11.62C28.37 9.82 29.09 8.1 30.38 6.83C31.66 5.56 33.4 4.84 35.22 4.84ZM15.65 20.34C17 20.34 18.33 19.94 19.45 19.2C20.58 18.45 21.46 17.39 21.98 16.15C22.5 14.91 22.63 13.55 22.37 12.23C22.1 10.92 21.45 9.71 20.49 8.76C19.53 7.81 18.31 7.17 16.99 6.91C15.66 6.64 14.28 6.78 13.03 7.29C11.78 7.81 10.71 8.67 9.95 9.79C9.2 10.91 8.8 12.22 8.8 13.56C8.8 15.36 9.52 17.08 10.81 18.35C12.09 19.62 13.83 20.34 15.65 20.34ZM15.65 8.71C16.62 8.71 17.56 9 18.37 9.53C19.17 10.06 19.8 10.82 20.17 11.7C20.54 12.59 20.64 13.56 20.45 14.5C20.26 15.44 19.79 16.31 19.11 16.98C18.42 17.66 17.55 18.12 16.6 18.31C15.65 18.5 14.67 18.4 13.78 18.03C12.88 17.67 12.12 17.04 11.58 16.25C11.04 15.45 10.76 14.52 10.76 13.56C10.76 12.27 11.27 11.04 12.19 10.13C13.11 9.23 14.35 8.72 15.65 8.71Z" fill="#FFFFFF" fill-opacity="1.000000" fill-rule="nonzero"/>
	</g>
</svg>
