<svg width="165.000000" height="36.000000" viewBox="0 0 165 36" fill="none" xmlns="http://www.w3.org/2000/svg" xmlns:xlink="http://www.w3.org/1999/xlink">
	<desc>
			Created with Pixso.
	</desc>
	<defs>
		<clipPath id="clip10_21">
			<rect id="Frame" rx="-0.500000" width="35.000000" height="35.000000" transform="translate(0.500000 0.500000)" fill="white" fill-opacity="0"/>
		</clipPath>
	</defs>
	<path id="Vector" d="M164.59 20.27C164.59 22.21 164.21 23.85 163.46 25.19C162.7 26.51 161.68 27.52 160.4 28.21C159.11 28.89 157.68 29.23 156.1 29.23C154.51 29.23 153.08 28.89 151.79 28.2C150.51 27.51 149.5 26.5 148.74 25.17C147.99 23.83 147.61 22.2 147.61 20.27C147.61 18.32 147.99 16.69 148.74 15.36C149.5 14.02 150.51 13.01 151.79 12.33C153.08 11.65 154.51 11.3 156.1 11.3C157.68 11.3 159.11 11.65 160.4 12.33C161.68 13.01 162.7 14.02 163.46 15.36C164.21 16.69 164.59 18.32 164.59 20.27ZM159.72 20.27C159.72 19.22 159.58 18.34 159.3 17.63C159.03 16.9 158.62 16.36 158.08 15.99C157.55 15.61 156.89 15.43 156.1 15.43C155.32 15.43 154.66 15.61 154.12 15.99C153.58 16.36 153.18 16.9 152.9 17.63C152.63 18.34 152.49 19.22 152.49 20.27C152.49 21.31 152.63 22.2 152.9 22.92C153.18 23.63 153.58 24.18 154.12 24.55C154.66 24.92 155.32 25.11 156.1 25.11C156.89 25.11 157.55 24.92 158.08 24.55C158.62 24.18 159.03 23.63 159.3 22.92C159.58 22.2 159.72 21.31 159.72 20.27Z" fill="#FF3D00" fill-opacity="1.000000" fill-rule="nonzero"/>
	<path id="Vector" d="M129.68 29L129.68 11.54L134.42 11.54L134.42 18.36L140.69 18.36L140.69 11.54L145.43 11.54L145.43 29L140.69 29L140.69 22.18L134.42 22.18L134.42 29L129.68 29Z" fill="#FF3D00" fill-opacity="1.000000" fill-rule="nonzero"/>
	<path id="Vector" d="M112.34 11.54L117.08 11.54L117.08 20.68L117.21 20.68L123.42 11.54L127.44 11.54L127.44 29L122.7 29L122.7 19.82L122.6 19.82L116.29 29L112.34 29L112.34 11.54Z" fill="#FF3D00" fill-opacity="1.000000" fill-rule="nonzero"/>
	<path id="Vector" d="M105.12 29L99.77 21.94L99.1 21.94L99.1 29L94.36 29L94.36 11.54L99.1 11.54L99.1 18.12L99.71 18.12L104.73 11.54L110.69 11.54L104.04 19.93L111.07 29L105.12 29Z" fill="#FF3D00" fill-opacity="1.000000" fill-rule="nonzero"/>
	<path id="Vector" d="M92.17 20.27C92.17 22.21 91.79 23.85 91.04 25.19C90.28 26.51 89.26 27.52 87.98 28.21C86.69 28.89 85.26 29.23 83.68 29.23C82.09 29.23 80.65 28.89 79.37 28.2C78.09 27.51 77.07 26.5 76.32 25.17C75.57 23.83 75.19 22.2 75.19 20.27C75.19 18.32 75.57 16.69 76.32 15.36C77.07 14.02 78.09 13.01 79.37 12.33C80.65 11.65 82.09 11.3 83.68 11.3C85.26 11.3 86.69 11.65 87.98 12.33C89.26 13.01 90.28 14.02 91.04 15.36C91.79 16.69 92.17 18.32 92.17 20.27ZM87.29 20.27C87.29 19.22 87.16 18.34 86.88 17.63C86.6 16.9 86.2 16.36 85.66 15.99C85.12 15.61 84.47 15.43 83.68 15.43C82.9 15.43 82.24 15.61 81.7 15.99C81.16 16.36 80.76 16.9 80.48 17.63C80.2 18.34 80.07 19.22 80.07 20.27C80.07 21.31 80.2 22.2 80.48 22.92C80.76 23.63 81.16 24.18 81.7 24.55C82.24 24.92 82.9 25.11 83.68 25.11C84.47 25.11 85.12 24.92 85.66 24.55C86.2 24.18 86.6 23.63 86.88 22.92C87.16 22.2 87.29 21.31 87.29 20.27Z" fill="#FFFFFF" fill-opacity="1.000000" fill-rule="nonzero"/>
	<path id="Vector" d="M59.51 29L59.51 11.54L67.04 11.54C68.34 11.54 69.47 11.8 70.45 12.31C71.42 12.82 72.17 13.54 72.71 14.46C73.25 15.39 73.52 16.47 73.52 17.71C73.52 18.96 73.24 20.04 72.69 20.96C72.14 21.87 71.36 22.58 70.36 23.07C69.37 23.57 68.2 23.81 66.87 23.81L62.37 23.81L62.37 20.13L65.92 20.13C66.48 20.13 66.95 20.03 67.34 19.84C67.74 19.64 68.04 19.36 68.25 19C68.47 18.63 68.58 18.21 68.58 17.71C68.58 17.21 68.47 16.78 68.25 16.43C68.04 16.07 67.74 15.8 67.34 15.61C66.95 15.42 66.48 15.32 65.92 15.32L64.25 15.32L64.25 29L59.51 29Z" fill="#FFFFFF" fill-opacity="1.000000" fill-rule="nonzero"/>
	<path id="Vector" d="M56.48 11.54L56.48 29L51.81 29L51.81 15.29L45.91 15.29L45.91 29L41.24 29L41.24 11.54L56.48 11.54Z" fill="#FFFFFF" fill-opacity="1.000000" fill-rule="nonzero"/>
	<rect id="Frame" rx="-0.500000" width="35.000000" height="35.000000" transform="translate(0.500000 0.500000)" fill="#FFFFFF" fill-opacity="0"/>
	<g clip-path="url(#clip10_21)">
		<path id="Vector" d="M5.62 13.5L23.62 13.5C25.48 13.5 27 15.01 27 16.87L27 24.75C27 26.61 25.48 28.12 23.62 28.12L5.62 28.12C3.76 28.12 2.25 26.61 2.25 24.75L2.25 16.87C2.25 15.01 3.76 13.5 5.62 13.5Z" fill="#FF3D00" fill-opacity="1.000000" fill-rule="evenodd"/>
		<path id="Vector" d="M33.75 25.87L27 22.5L27 19.12L33.75 15.75L33.75 25.87Z" fill="#FF3D00" fill-opacity="1.000000" fill-rule="nonzero"/>
		<path id="Vector" d="M24.75 6.75C24.75 9.23 22.73 11.25 20.25 11.25C17.76 11.25 15.75 9.23 15.75 6.75C15.75 4.26 17.76 2.25 20.25 2.25C22.73 2.25 24.75 4.26 24.75 6.75Z" fill="#FF3D00" fill-opacity="1.000000" fill-rule="evenodd"/>
		<path id="Vector" d="M12.37 7.87C12.37 9.73 10.86 11.25 9 11.25C7.13 11.25 5.62 9.73 5.62 7.87C5.62 6.01 7.13 4.5 9 4.5C10.86 4.5 12.37 6.01 12.37 7.87Z" fill="#FF3D00" fill-opacity="1.000000" fill-rule="evenodd"/>
		<path id="Vector" d="M34.04 15.27C33.96 15.22 33.87 15.19 33.77 15.18C33.67 15.18 33.58 15.2 33.49 15.24L27.56 18.21L27.56 16.87C27.56 15.83 27.14 14.83 26.4 14.09C25.66 13.35 24.66 12.93 23.62 12.93L5.62 12.93C4.58 12.93 3.58 13.35 2.84 14.09C2.1 14.83 1.68 15.83 1.68 16.87L1.68 24.75C1.68 25.79 2.1 26.79 2.84 27.53C3.58 28.27 4.58 28.68 5.62 28.68L13.26 28.68L8.6 33.35C8.49 33.45 8.44 33.6 8.44 33.74C8.44 33.89 8.5 34.03 8.6 34.14C8.71 34.24 8.85 34.3 9 34.3C9.14 34.3 9.29 34.25 9.39 34.14L14.62 28.92L19.85 34.14C19.95 34.25 20.1 34.3 20.24 34.3C20.39 34.3 20.53 34.24 20.64 34.14C20.74 34.03 20.8 33.89 20.8 33.74C20.8 33.6 20.75 33.45 20.64 33.35L15.98 28.68L23.62 28.68C24.66 28.68 25.66 28.27 26.4 27.53C27.14 26.79 27.56 25.79 27.56 24.75L27.56 23.41L33.49 26.37C33.58 26.42 33.67 26.44 33.77 26.43C33.87 26.43 33.96 26.4 34.04 26.35C34.12 26.3 34.19 26.23 34.24 26.14C34.28 26.06 34.31 25.97 34.31 25.87L34.31 15.75C34.31 15.65 34.28 15.56 34.24 15.47C34.19 15.39 34.12 15.32 34.04 15.27ZM26.43 24.75C26.43 25.49 26.14 26.21 25.61 26.73C25.08 27.26 24.37 27.56 23.62 27.56L5.62 27.56C4.87 27.56 4.16 27.26 3.63 26.73C3.1 26.21 2.81 25.49 2.81 24.75L2.81 16.87C2.81 16.12 3.1 15.41 3.63 14.88C4.16 14.36 4.87 14.06 5.62 14.06L23.62 14.06C24.37 14.06 25.08 14.36 25.61 14.88C26.14 15.41 26.43 16.12 26.43 16.87L26.43 24.75ZM33.18 24.96L27.56 22.15L27.56 19.47L33.18 16.66L33.18 24.96ZM20.25 11.81C21.25 11.81 22.23 11.51 23.06 10.95C23.89 10.4 24.54 9.61 24.92 8.68C25.31 7.76 25.41 6.74 25.21 5.76C25.01 4.78 24.53 3.87 23.82 3.17C23.12 2.46 22.21 1.98 21.23 1.78C20.25 1.58 19.23 1.68 18.31 2.07C17.38 2.45 16.59 3.1 16.04 3.93C15.48 4.76 15.18 5.74 15.18 6.75C15.18 8.09 15.72 9.37 16.67 10.32C17.62 11.27 18.9 11.81 20.25 11.81ZM20.25 2.81C21.02 2.81 21.79 3.04 22.43 3.47C23.08 3.9 23.58 4.52 23.88 5.24C24.18 5.96 24.26 6.75 24.11 7.51C23.95 8.28 23.58 8.98 23.03 9.53C22.48 10.08 21.78 10.45 21.01 10.61C20.25 10.76 19.46 10.68 18.74 10.38C18.02 10.08 17.4 9.58 16.97 8.93C16.54 8.29 16.31 7.52 16.31 6.75C16.31 5.7 16.72 4.7 17.46 3.96C18.2 3.22 19.2 2.81 20.25 2.81ZM9 11.81C9.77 11.81 10.54 11.58 11.18 11.14C11.83 10.71 12.33 10.1 12.63 9.38C12.93 8.66 13.01 7.87 12.86 7.1C12.7 6.34 12.33 5.64 11.78 5.09C11.23 4.54 10.53 4.16 9.76 4.01C9 3.86 8.21 3.93 7.49 4.23C6.77 4.53 6.15 5.03 5.72 5.68C5.29 6.33 5.06 7.09 5.06 7.87C5.06 8.91 5.47 9.91 6.21 10.65C6.95 11.39 7.95 11.81 9 11.81ZM9 5.06C9.55 5.06 10.1 5.22 10.56 5.53C11.02 5.84 11.38 6.28 11.59 6.79C11.81 7.31 11.86 7.87 11.75 8.42C11.65 8.96 11.38 9.47 10.98 9.86C10.59 10.25 10.09 10.52 9.54 10.63C9 10.74 8.43 10.68 7.92 10.47C7.4 10.26 6.97 9.9 6.66 9.43C6.35 8.97 6.18 8.43 6.18 7.87C6.18 7.12 6.48 6.41 7.01 5.88C7.53 5.35 8.25 5.06 9 5.06Z" fill="#FFFFFF" fill-opacity="1.000000" fill-rule="nonzero"/>
	</g>
</svg>
